<svg version="1" xmlns="http://www.w3.org/2000/svg" width="1365.333" height="1365.333" viewBox="0 0 1024.000000 1024.000000"><path d="M808.6 303.7c-.1.1-10.5.5-23.2.8-12.6.3-29 .8-36.4 1-156.3 4.9-343.4 7-450.5 5.1-37.6-.6-49.7-.9-80.6-2.1l-12.6-.4-6.2 4.4c-5.6 4.2-6.1 4.8-5.7 7.8.3 1.7.8 7 1.1 11.7 1.2 16.6 3 27 7.6 45.4 6 23.8 13.2 39.4 23.8 51.5 2.9 3.4 3.3 3.5 10.8 3.7 54.1 1.6 83.9 1.9 186.8 1.9 105 0 140.3-.3 216.5-2 25.3-.6 82.2-2.2 101.8-3 7-.2 21.3-.7 31.7-1.1 10.5-.3 21.3-.7 24-.9 2.8-.2 9.3-.4 14.5-.4 8.6-.1 9.8-.3 12-2.5 5.9-5.5 7-7.5 6.6-11.4-.3-2-.7-7.1-1.1-11.2-.3-4.1-.8-9.1-1-11-.3-1.9-.7-6.4-1-10-.3-3.6-.7-8.3-1-10.5-.2-2.2-.7-7.2-1-11-.8-8.8-1.2-13.5-2-20.5-.3-3-.7-7.8-.9-10.5-.9-10.7-1.8-20.8-2.1-22.4-.2-.9-.4-1.8-.4-2.1-.1-.5-11-.8-11.5-.3zM540.8 461.5c-.1.1-2.6.5-5.3.8-8.2.8-21.5 5.9-29.5 11.2-6.7 4.4-30.4 26.9-37 35-18.3 22.5-43.2 47.9-54 55.2-12.9 8.6-28.2 15.7-40 18.4-14.8 3.5-21.1 3.7-88.7 3.8-40.2.1-69.2.5-70.5 1.1-6.2 2.6-9.5 9-11.3 22.5-2.2 15.6-2.4 56.6-.3 70.3.4 3.1 1.1 7.2 1.3 9.1.3 1.9 1.7 6 3.1 9.2 4.3 9.6-1.1 9 78.1 8.8 61 0 70.1-.3 80.3-1.8 13-2.1 17.3-3.1 28-6.8 10.3-3.6 28.9-12.7 33.5-16.6.6-.4 3.5-2.6 6.5-4.8 3-2.3 8.7-7.2 12.6-11l7.2-6.9 3.2 3c20.7 19.4 58.4 41.5 77.3 45.4 18.7 3.9 30.1 4.4 42.2 1.9 13.4-2.7 29.5-12.6 38.5-23.5l3.1-3.8 6.7 5.6c7.2 5.9 19 12.4 27.4 14.9 13.6 4.1 17.9 4.4 87.1 4.4 73.6.1 70.5.4 74.5-6.1 2.4-3.9 4.8-12.8 5.9-21.8.4-3.6.8-19.6.7-35.5 0-36.4-2.1-48.4-9.4-55-2.5-2.2.7-2.1-96-2.8-50.6-.3-49.7-.2-59-9.6-6.8-6.9-12.1-17.4-18.8-37.2-2.8-8-6.8-18.2-8.9-22.6-14.3-29.1-36.8-48-63.8-53.5-4.8-.9-23.9-2-24.7-1.3zm27.5 110.4c13.9 3.8 24.8 13.3 22.4 19.5-.9 2.2-10.6 5.4-20.3 6.7-8.2 1.1-27.1.8-35.4-.6-15.8-2.6-29.1-7.1-37.4-12.8l-2.9-2 5.9-3c8.5-4.3 15.6-6.6 26.4-8.6 13-2.4 30.8-2.1 41.3.8z"/></svg>