<svg version="1" xmlns="http://www.w3.org/2000/svg" width="1205.333" height="1205.333" viewBox="0 0 904.000000 904.000000"><path d="M425.8.4c-.1.2-4.3.6-9.3 1-15.3 1.1-42.8 4.6-47.8 6.2-1 .3-3 .7-4.5.9-1.5.2-4.7.9-7.2 1.5s-5.8 1.3-7.5 1.6c-6 1-33 8.8-33.3 9.6-.2.4-.7.6-1.2.3-.7-.4-16.3 4.7-22.5 7.4-1.1.5-6.3 2.6-11.5 4.6-22.2 8.8-73 35.7-73 38.6 0 .6-.4.8-.9.4-.5-.3-1.5.1-2.3.8-.7.8-2.4 2-3.8 2.7-1.3.7-2.9 1.7-3.4 2.1-.6.5-5.6 4.2-11.1 8.2-14.6 10.6-23.5 17.7-23.5 19 0 .5-.3.7-.6.4-1.3-1.3-34.6 30.1-33.7 31.7.4.6.3.8-.2.4-1.6-1.5-24.3 24.3-40.4 45.9-4.5 6.1-8.2 11.4-8.2 11.8.1.3-.9 1.7-2.1 3-1.3 1.4-3.2 4.2-4.3 6.2-1.1 2.1-2.3 4-2.6 4.3-2 1.5-16.3 27.1-24.4 43.5-13.8 28.2-22.1 49.8-30 78-6.2 22.3-12.2 53.2-14 73-.4 3.8-.9 8.1-1.2 9.5-.2 1.4-.6 16.2-.7 33-.3 31.3.8 51.1 3.9 70.5.9 5.5 1.9 11.3 2.1 13 2.6 16.7 9.9 45.7 16.3 64.8 6 17.8 12.2 33.7 13 33.7.4 0 .7.9.8 2 .3 4.2 21 44.4 29.9 58.3 2.4 3.7 4.4 6.9 4.4 7.2 0 .7 16.1 23.7 21.4 30.5 15.9 20.5 38.6 45.3 54.6 59.5 3.6 3.2 8.3 7.5 10.5 9.5 12.8 11.7 58.8 44.6 60.6 43.4.4-.2.9 0 1.1.5.8 2.1 50.2 28.1 53.4 28.1.6 0 2.9.9 5.1 2 6.8 3.3 14.3 6 14.3 5.2 0-.4.4-.2.8.4 1 1.5 28.5 10.5 45.2 14.8 13.5 3.5 34.1 7.8 43.5 9.2 2.8.3 5.7.8 6.5.9.9.2 4.3.6 7.5 1 3.3.4 7.1.8 8.5 1.1 16 2.5 82.1 2.5 95.5 0 1.1-.2 4.7-.7 8-1 7.7-.9 12.4-1.6 15.5-2.2 1.4-.3 4.1-.7 6-.9 1.9-.3 7.8-1.4 13-2.5s10.6-2.3 12-2.6c21.3-4.4 73.2-21.8 71.3-23.9-.4-.4-.3-.5.4-.2.6.4 4.2-.7 8-2.4 16.2-7.2 26.2-12.3 25.7-13-.3-.5.1-.6.9-.3s2.1-.1 2.8-.8c.8-.7 1.9-1.4 2.4-1.5 2.4-.4 9.4-5 8.8-5.8-.5-.4-.3-.5.4-.2.6.4 6.4-2.6 13-6.6 16.4-10.1 19.4-12.3 18.5-13.2-.4-.5-.2-.5.4-.2.7.4 5.8-2.8 11.5-7 21.3-15.7 35.4-27.8 53.9-46.3 14.3-14.4 23-24.2 22.4-25.2-.3-.5-.1-.7.4-.6.7.3 3.8-2.9 7.5-7.7.4-.6 1.8-2.2 3.1-3.7 3.5-4 19.7-26.1 19.9-27.3.1-.6 1.1-2 2.2-3.3 9.9-11.3 36.8-62.5 45.7-87.2 1.1-3 2.6-6.9 3.3-8.5 1.1-2.6 4.7-13 5-14.5.1-.3 1.6-5.1 3.4-10.8 1.7-5.6 2.9-10.6 2.6-11.1-.3-.5-.1-1.1.3-1.3 1-.3 7.4-26.6 7.7-31.4.1-1.7.5-3.5.8-4 .3-.5.8-3 1.2-5.4.3-2.5.8-5.2 1-6 .2-.8.7-4 1-7 .3-3 .8-6.2 1-7 .4-1.8 1.4-12 2.5-25.5.8-10.2.5-65-.4-69.5-.2-1.4-.7-5.7-1.1-9.5-3.1-36-14.3-81.3-29.7-120-7.8-19.7-21.8-48.6-23.2-47.8-.6.3-.8.3-.4-.2.7-.7-.7-3.5-7.2-15-1.2-2.1-4.9-7.9-8.1-12.8-3.2-4.9-5.9-9.3-5.9-9.8s-.4-.9-.9-.9-1.2-.9-1.6-1.9c-.3-1.1-1.9-3.4-3.5-5.1-1.6-1.7-2.8-3.3-2.7-3.5.4-.7-10.6-14.5-11.6-14.5-.6 0-.7-.3-.4-.7.6-.5-3.4-5.7-10.5-13.8-1-1.1-2.8-3.2-4-4.6-10.6-12-20.3-21.7-21.1-21.2-.6.3-.7.2-.4-.4.6-.9-11.1-12.3-22.8-22.2-2.7-2.4-6.3-5.5-8-7-16.1-14.3-68.9-49.2-71.8-47.4-.6.3-.7.2-.4-.4.7-1.2-28.1-15.3-46.3-22.6C586.8 19 549.7 9 516 4.5c-2.5-.3-5.2-.8-6-1-.8-.2-5.1-.7-9.5-1-4.4-.4-9.3-.9-11-1.1-3.2-.6-63.1-1.4-63.7-1z"/></svg>