<svg xmlns="http://www.w3.org/2000/svg" version="1.1" xmlns:xlink="http://www.w3.org/1999/xlink" xmlns:svgjs="http://svgjs.com/svgjs" width="192.000000pt" height="192.000000pt"><svg version="1.0" xmlns="http://www.w3.org/2000/svg" width="192.000000pt" height="192.000000pt" viewBox="0 0 192.000000 192.000000" preserveAspectRatio="xMidYMid meet">

<g transform="translate(0.000000,192.000000) scale(0.100000,-0.100000)" fill="#6b7280" stroke="none">
<path d="M542 1660 c-149 -40 -273 -126 -371 -259 -103 -139 -179 -349 -167
-463 13 -126 85 -220 214 -281 57 -27 81 -32 164 -35 128 -6 142 0 92 37 -98
70 -153 161 -154 249 0 117 81 183 225 185 105 1 169 -43 197 -136 34 -112 7
-346 -68 -595 -19 -62 -33 -116 -30 -120 2 -4 290 -6 640 -4 l636 2 0 43 c0
83 -31 288 -60 404 -88 340 -305 676 -530 822 -73 47 -230 115 -327 142 -115
32 -358 37 -461 9z"></path>
</g>
</svg><style>@media (prefers-color-scheme: light) { :root { filter: none; } }
</style></svg>