<svg version="1" xmlns="http://www.w3.org/2000/svg" width="1333.333" height="1333.333" viewBox="0 0 1000.000000 1000.000000"><path d="M346.5 121.5c-32 3.3-55.4 7.6-78.5 14.6-69.9 21-130.3 64.4-177.3 127.3-36.9 49.6-59.6 94-77 151.1C2.2 452.2.6 462.2.5 496c0 23.8.2 27.7 2.3 37.8 7.3 36.1 25 67.1 51.5 90.3C64 632.6 86.5 648 99 654.8c21.7 11.7 48.4 20.1 76 23.9 17.2 2.4 59.2 2.4 73.5 0 15.8-2.6 23.5-5.4 23.5-8.7 0-.5-4.9-3.4-10.8-6.5-19.9-10.3-41.5-28.3-56.7-47-9.9-12.3-15.5-20.9-22.4-34.5-11.4-22.4-14.6-36.4-13.8-59.5.6-18 2.6-26.9 9.4-40.5 3.9-8.1 6-10.9 14.2-19.1 8.4-8.4 10.9-10.2 20.1-14.7 12.8-6.3 28.3-11.5 41-13.9 7.4-1.3 15-1.7 34-1.7 22.1 0 25.3.2 32.2 2.1 18.8 5.3 38.1 18.4 48.2 32.7 19.6 27.6 28 72.8 24.7 132.1-1.8 31.3-3.9 45.3-14.1 96.1-11 54.3-21.7 94.4-38.4 143.9-5.1 15.4-9.7 30-10.1 32.5-.3 2.5-.9 5.3-1.1 6.2-.5 1.7 15.9 1.8 335.5 1.8H1000v-24.3c0-128.9-32.8-264.6-92.9-384.7C856.8 370.6 793.5 289.4 717 227.3c-14.6-11.8-58.2-36.3-93-52.2-62.3-28.4-118.7-44.8-181.5-52.7-17.8-2.2-77.8-2.8-96-.9z"/></svg>