<svg version="1" xmlns="http://www.w3.org/2000/svg" width="1333.333" height="1333.333" viewBox="0 0 1000.000000 1000.000000"><path d="M347.1 120.6c-.1.7-3.6 1.4-9.1 1.8-4.9.4-9.2 1.2-9.5 1.7-.4.5-1.3.5-2.4-.1-1-.5-2.1-.6-2.5-.3-.3.3-2.1.8-3.8 1-8.6.9-36.8 6.7-40.9 8.4-1.4.5-3 .9-3.5.8-1.6-.2-5.4 1.3-5.4 2.3 0 .5-.5.6-1 .3-.9-.6-18.7 4.7-21.5 6.4-.5.3-1.4.6-2 .7-.5.1-5.3 2-10.5 4.3-5.2 2.2-10.1 4.1-10.7 4.1-.7 0-1.3.5-1.3 1.1 0 .5-.5.7-1 .4-.6-.3-1.2 0-1.5.7-.3.8-1.5 1.4-2.6 1.5-1.1.1-2.6.6-3.3 1.2-.6.5-3.6 2.3-6.6 3.9-15.6 8.3-30.3 17.6-43.7 27.9-4.6 3.5-8.7 6.3-9.3 6.3-.5 0-1 .6-1 1.3 0 .7-1.2 2-2.8 2.9-1.5 1-4.9 3.8-7.6 6.3-2.6 2.5-5 4.5-5.2 4.5-.5 0-4.4 3.9-4.4 4.4 0 .5-7.1 7.6-7.5 7.6-.7 0-12.5 12.8-19.5 21-4 4.7-7.8 9-8.5 9.5-.7.6-1.5 2-1.9 3.3-.4 1.2-1.1 2.2-1.6 2.2s-1.9 1.7-3.1 3.7c-1.3 2.1-3.3 4.8-4.6 6-1.3 1.3-2.1 2.3-1.8 2.3.3 0 .1.6-.5 1.2-3 3.6-8 10.8-7.5 10.8.3 0-.3 1-1.5 2.2-1.1 1.2-2 2.5-2 2.9 0 .4-.6 1.4-1.3 2.1-4.1 4.3-23.7 37.5-27.4 46.5-1 2.4-2.1 4.3-2.5 4.3-.5 0-.8.9-.8 1.9 0 1.1-.4 2.3-1 2.6-.9.6-5 9-5.4 11.1-.1.7-.6 1.8-1.2 2.5-1 1.4-9.2 21.4-10 24.4-.3 1.2-7.2 20.3-8.1 22.5-.3.8-.5 2.1-.4 2.8.1.8-.3 2-1 2.8-.6.8-.9 1.4-.5 1.4s0 1.3-.9 3c-.9 1.6-1.3 3-1.1 3 .3 0-.2 1.9-1 4.2-1.6 4.6-6.4 22.8-6.9 26.3-.1 1.1-.5 2.7-.8 3.5-2 5.4-3.2 22.1-3.2 45 0 22.5.3 26.8 2.3 36.8 1.3 6.2 2.8 12.5 3.4 14 .6 1.5 1 3 1 3.5-.1.4.5 2.4 1.3 4.3.8 2 1.2 4 .9 4.5-.3.5 0 .9.5.9.6 0 1.1.9 1.1 2s.7 2.3 1.5 2.6c.8.4 1.2 1 .9 1.5-.5.9 7.9 18 10 20.2.6.7 1.7 2.3 2.4 3.7 2.2 4.3 9.9 14.1 17.5 22.4 3.9 4.3 7.5 8.4 7.9 9 .4.6.8.7.8.3 0-.5 2.5 1.4 5.6 4.1 3 2.7 8.8 7.2 12.7 9.8 4 2.7 7.4 5.1 7.7 5.4.3.3 3.9 2.6 8 5.1 28.9 17.6 55.6 27.1 88.4 31.4 6.5.8 12.2 1.8 12.7 2.1.5.3.9.1.9-.4s2-.6 4.8-.1c6.8 1.1 35.6 1.1 38.6-.1 1.4-.5 2.7-.6 3-.2.5.8 5.3.7 7.6-.1.8-.3 3.5-.8 6-1.1 11.7-1.4 20.7-4 22.6-6.6 1.9-2.4.6-3.7-7.7-7.6-4.3-2-7.9-4.1-7.9-4.6 0-.4-.7-.8-1.5-.8-1.9 0-7.8-4.1-21-14.6-3.8-3.1-7.1-6-7.3-6.5-.2-.5-.7-.9-1.1-.9-1.4 0-15.1-14.3-15.1-15.8 0-.7-.3-1.1-.7-.9-1 .6-16.1-19.4-18.8-24.8-1.1-2.2-2.3-4.2-2.7-4.5-1.2-.9-11.5-23.1-13.7-29.5-1.1-3.3-2.8-10.3-3.7-15.5-.9-5.2-1.7-9.7-1.9-9.9-.2-.1 0-1.3.5-2.5.4-1.3.4-2.9-.1-3.9-.7-1.1-.6-1.7 0-1.7s.6-1.1.1-3c-.5-1.7-.5-3-.1-3 .8 0 .7-4.7-.1-5.5-.3-.3 0-2.2.7-4.3.9-2.4 1-4.1.4-4.9-.6-.6-.6-1.3-.2-1.5.4-.1 1.6-3.2 2.5-6.8.9-3.6 2.2-7.9 2.9-9.5.7-1.7 1.3-3.2 1.3-3.5.1-.3 1.7-3.4 3.6-7 2.3-4.4 6.8-9.9 13.7-16.8 5.7-5.7 10.3-10.1 10.3-9.8 0 .3 3.3-1.2 7.3-3.3 3.9-2.2 11.3-5.4 16.2-7.2 5-1.9 9.2-3.7 9.3-4.1.2-.5.7-.6 1.2-.3.4.3 4.2-.4 8.3-1.4 18.5-4.8 68-5.3 73.5-.9.8.7 1.2.7 1.2-.1 0-.8.7-.7 2.3.3 1.2.8 3.3 1.6 4.7 1.8 1.4.2 3.1.9 3.8 1.5.7.7 2 1.3 2.8 1.3.8 0 1.4.5 1.4 1.2 0 .6.3.9.6.5 1.2-1.1 23.3 13.8 23.4 15.8 0 .5 1.4 1.9 3 3s3 2.5 3 3.2c0 .7 1 2.2 2.3 3.5 2.9 3 6.8 10.3 6 11.2-.3.3-.2.6.4.6 1.3 0 6.6 11.8 9.4 21 1.3 4.1 2.7 7.7 3.1 7.8.4.2.6.7.3 1.2s.2 4.1 1.1 8.2c1.3 6.3 4.1 26.3 4.8 33.8.1 1.4-.2 3.5-.6 4.7-.4 1.2-.3 2.5.2 2.8 1.4.8 1.3 32.2 0 33-.6.4-.7 1.1-.4 1.7 2.4 3.8-3 50.8-9.1 79.9-.8 3.8-1.4 7.3-1.3 7.7 0 .4-.2 1.4-.5 2.2-1.1 2.7-5.7 27.3-5.2 28.1.3.4.2.9-.3 1.1-.4.1-1.6 4.3-2.6 9.3-1 4.9-2.1 9.4-2.4 9.9-.3.5-.6 2.5-.8 4.5-.2 2-.8 3.7-1.4 3.9-.5.2-.8.8-.5 1.2.8 1.3-3.2 17.1-12.6 50-2.3 8-4.3 15.2-4.3 16-.1.9-.6 2.2-1.1 3-.5.8-1.1 2.4-1.2 3.5-.2 1.1-.8 2.2-1.3 2.3-.6.2-.8.7-.5 1.2.3.4-.4 3.4-1.5 6.5-1.1 3.2-2 6.6-2 7.5 0 1-.7 2.3-1.5 3-.9.7-1.4 1.5-1.1 1.7.2.3-.7 3.7-2.1 7.6-1.3 4-2.6 7.7-2.7 8.3-.1.7-.7 1.8-1.4 2.6-.6.8-.9 1.7-.6 2 .3.3-.2 2.3-1 4.3-.9 2.1-1.6 4.6-1.6 5.6 0 1.1-.3 1.9-.7 1.9-.5 0-.9 2.4-1.1 5.4l-.3 5.3 4.3.6c2.4.3 153.4.6 335.6.6h331.4l-.7-35.2c-.4-19.4-.9-38.4-1.1-42.2-.7-9.7-2.3-23.5-2.8-24.4-.3-.4-.1-1.3.4-2.1s.5-1.9 0-2.5c-.8-1-2.3-14.5-2.4-21.8-.1-2-.4-3.7-.8-3.7s-.7-1-.7-2.3c0-1.2-.2-3.3-.4-4.7-.3-1.4-1.1-6.1-1.7-10.5-2.6-18.3-12.5-67.5-13.8-68.5-.4-.3-.8-1.9-.8-3.6-.1-1.8-1.4-7.4-2.8-12.6-1.5-5.1-2.8-10.4-3-11.8-.2-1.4-.8-3.8-1.5-5.3-.6-1.6-1.1-3.7-1.1-4.7s-.4-2.1-.9-2.4c-.4-.3-1.1-2-1.4-3.8-.3-1.8-1.1-4.7-1.8-6.3-.7-1.7-1.2-3.3-1.1-3.7.4-1.7-17.2-51.6-24.3-69.3-4.3-10.5-7.7-19.6-7.8-20.3 0-.6-.3-1.2-.6-1.2-.5 0-3.4-5.6-3.6-7-.3-2-3.1-8-3.7-8-.4 0-.8-.6-.8-1.3 0-.7-2.4-6.2-5.4-12.2-2.9-6.1-5.7-12.1-6.1-13.5-.4-1.4-1.8-4.1-3-6-1.2-1.9-5.7-10.3-9.9-18.5-4.3-8.3-8.4-15.7-9.2-16.6-.8-.8-1.4-1.8-1.4-2.2 0-.3-1.3-2.9-3-5.7-1.6-2.7-2.6-5-2.2-5 .4 0 .2-.4-.5-.8-.6-.4-4.4-6.1-8.4-12.7-6.3-10.6-27-41.7-39.3-59.2-2.4-3.4-4.6-5.9-5-5.6-.3.4-.6.1-.6-.6 0-1.2-10.5-15.2-14.9-19.7-1.1-1.2-1.7-2.5-1.4-2.8.4-.3.2-.6-.4-.6-.6 0-3.5-3.1-6.5-6.9-3.1-3.9-5.9-6.7-6.2-6.4-.3.4-.6.2-.6-.4 0-.6-2.6-4-5.7-7.5-3.2-3.6-6.8-7.5-7.9-8.9-1.2-1.3-6.6-6.8-12-12.1-5.5-5.4-12.5-12.5-15.8-15.8-3.2-3.3-6.1-6-6.4-6-.3 0-2.8-2.1-5.6-4.8-7-6.4-18.4-16.4-20.8-18.2-1.1-.8-3.7-2.9-5.7-4.6-5-4.3-13.9-10.4-15.1-10.4-.5 0-1-.3-1-.8 0-.4-1-1.2-2.3-1.8-1.2-.6-8.3-4.6-15.7-8.9-12.8-7.4-45.4-24.3-56.7-29.4-2.9-1.3-5.3-2.7-5.3-3 0-.3-1.1-.7-2.5-.7-1.4-.1-3.3-.8-4.1-1.5-1.5-1.3-7.3-3.7-10.2-4.3-.8-.1-1.7-.8-2.1-1.5-.5-.7-1.2-1.2-1.7-1.1-.9.1-7.4-2.2-13.4-4.7-1.9-.8-4.4-1.8-5.5-2.3-3.1-1.2-11.4-4.2-12.8-4.4-.6-.2-2.5-.8-4.2-1.5-3-1.2-16.5-5.6-32.3-10.5-4.6-1.4-10-2.8-12-3.2-2-.4-4.5-1.1-5.5-1.6-1.1-.5-3.5-1.2-5.5-1.5-5.7-.8-6.6-1-8.2-1.5-2.7-1-9.5-2.6-11-2.7-.8 0-3.5-.5-6-1-7.6-1.7-8.3-1.9-16.5-3.1-15.9-2.4-36.6-4.9-42-5.1-22.8-.7-64.1-.7-70-.1-5 .6-7.6.5-7.9-.2-.3-.7-.5-.7-.5 0z"/></svg>